<?xml version="1.0" encoding="utf-8"?>
<!-- Generator: Adobe Illustrator 20.1.0, SVG Export Plug-In . SVG Version: 6.00 Build 0)  -->
<svg version="1.1" xmlns="http://www.w3.org/2000/svg" xmlns:xlink="http://www.w3.org/1999/xlink" x="0px" y="0px"
	 viewBox="0 0 403.6 242" style="enable-background:new 0 0 403.6 242;" xml:space="preserve">
<g id="Layer_1">
	<g>
		<path d="M218,21.2c44,0,79.9,10.2,109.5,31.2c25,17.7,54.9,52.8,54.9,119.1c0,13.2-5.1,25.6-14.4,34.9
			c-9.3,9.3-21.6,14.4-34.8,14.4l-262.8,0c-27.1,0-49.2-22.1-49.2-49.2v-59.4c0-30.7,12.9-56.5,36.3-72.5
			c18.2-12.4,41.8-18.5,72.3-18.5H218 M218,0h-88.1C94.9,0,67.3,7.3,45.5,22.2c-14.7,10-26.1,23.1-33.9,38.7
			C3.9,76.3,0,93.5,0,112.2v59.4C0,210.4,31.6,242,70.4,242l262.8,0c18.8,0,36.5-7.3,49.8-20.7c13.3-13.3,20.6-31,20.6-49.9
			c0-33.4-7-63-20.7-88c-10.7-19.4-25.2-35.7-43.2-48.4C306.4,11.5,266.5,0,218,0L218,0z"/>
		<g>
			<g>
				<path d="M91.6,171.6H70.4v-59.4c0-29.3,19.8-41.7,59.4-41.7c39.6,0,59.4,12.4,59.4,41.7v59.4h-21.2v-59.4
					c0-18.4-16.3-21.9-38.2-21.9c-21.9,0-38.2,3.5-38.2,21.9V171.6z"/>
			</g>
			<g>
				<g>
					<path d="M237.9,94.7c21.1,1.9,37.2,7,48.8,15.2c5.1,3.6,18.6,13.2,23.5,40.5h-72.3L237.9,94.7 M216.7,72.5v99h116.5
						C333.2,92.9,281,72.5,216.7,72.5L216.7,72.5z"/>
				</g>
			</g>
		</g>
	</g>
</g>
<g id="Layer_2">
</g>
</svg>
